<svg width="18" height="4" viewBox="0 0 18 4" fill="none" xmlns="http://www.w3.org/2000/svg">
<path fill-rule="evenodd" clip-rule="evenodd" d="M9 -6.10352e-05C7.89543 -6.10352e-05 7 0.895369 7 1.99994C7 3.10451 7.89543 3.99994 9 3.99994C10.1046 3.99994 11 3.10451 11 1.99994C11 0.895369 10.1046 -6.10352e-05 9 -6.10352e-05ZM2 -6.10352e-05C0.89543 -6.10352e-05 0 0.895369 0 1.99994C0 3.10451 0.89543 3.99994 2 3.99994C3.10457 3.99994 4 3.10451 4 1.99994C4 0.895369 3.10457 -6.10352e-05 2 -6.10352e-05ZM16 -6.10352e-05C14.8954 -6.10352e-05 14 0.895369 14 1.99994C14 3.10451 14.8954 3.99994 16 3.99994C17.1046 3.99994 18 3.10451 18 1.99994C18 0.895369 17.1046 -6.10352e-05 16 -6.10352e-05Z" fill="#828282"/>
</svg>
